<?xml version="1.0" standalone="yes"?>
<svg xmlns="http://www.w3.org/2000/svg" width="512" height="512">
<path style="fill:#000000; stroke:none;" d="M0 0L0 512L131 512C119.164 500.388 109.172 486.964 98.8002 474C84.8822 456.603 70.7957 439.337 56.8032 422C49.4416 412.879 32.8911 399.131 39.4568 386C43.798 377.318 54.227 370.773 61 364C78.6733 346.328 97.3294 329.671 115 312C121.177 305.823 127.872 300.213 133.995 293.999C136.055 291.91 139.345 289.27 139.119 286C138.841 281.992 134.181 277.201 131.975 274C125.278 264.286 118.273 254.778 111.67 245C86.6661 207.973 60.4615 171.731 35.0247 135C28.5567 125.66 22.1268 116.281 15.5756 107C9.36578 98.2028 4.03595 87.9951 14.1049 79.3943C19.9274 74.4209 28.8937 76 36 76L86 76C74.7282 57.8996 59.0892 42.4201 48.3287 24C43.1225 15.0879 46.845 5.27252 56 1C50.7835 -1.1889 43.6192 0 38 0L0 0z"/>
<path style="fill:#b3bfff; stroke:none;" d="M279 153L279 75L279 52C279.005 48.9061 279.809 44.938 278.687 42C276.901 37.3262 271.453 33.4533 268 30L249 11C245.423 7.42435 241.804 2.95419 237 1.00925C232.483 -0.819397 226.774 0 222 0L192 0L87 0C73.487 0 46.2663 -5.28607 45.4745 15C45.0642 25.5126 56.3199 36.1367 62.1157 44C67.5129 51.3224 72.9933 58.6051 78.2901 66C80.6556 69.3025 83.0492 73.8555 87.0394 75.3966C94.1057 78.1259 105.467 76 113 76L172 76C180.524 76 192.193 73.9358 200 77.8395C208.888 82.2834 216.057 92.0571 223 99C240.884 116.884 258.282 138.406 279 153z"/>
<path style="fill:#000000; stroke:none;" d="M236 0C272.98 33.3639 307.76 69.7597 343 105L375 137C379.999 141.999 384.998 148.608 391 152.397C394.744 154.76 399.77 154 404 154L430 154C434.862 154 439.79 153.362 444 156.228C451.244 161.16 457.502 167.983 464 173.831L492 198.831C498.605 204.777 506.311 211.136 502.891 221C499.57 230.579 490.766 231.971 482 233.611C463.029 237.161 444.03 240.706 425 243.919C419.319 244.878 406.925 244.744 403.074 249.434C397.888 255.75 395.367 266.506 392.15 274C384.433 291.98 376.867 310.02 369.15 328C365.2 337.203 361.915 351.873 352 356.347C348.529 357.914 344.699 357.83 341 358.285C332.344 359.348 323.671 360.238 315 361.166C288.662 363.986 262.337 367.014 236 369.834L209 372.834C205.34 373.226 199.625 372.784 196.51 375.024C193.943 376.869 193.28 381.186 192.333 384C189.967 391.027 187.346 397.962 185 405C176.543 430.372 167.79 455.629 159.333 481C155.771 491.687 153.823 505.369 143 511C146.699 512.552 151.017 512 155 512L176 512L251 512L512 512L512 0L236 0z"/>
<path style="fill:#8080ff; stroke:none;" d="M47 7L48 8L47 7M47 23L48 24L47 23M52 30L53 31L52 30z"/>
<path style="fill:#a8b6ff; stroke:none;" d="M279 43L279 155L392 155C388.301 153.448 383.983 154 380 154L358 154L280 154L280 77L280 55C280 51.0172 280.552 46.6987 279 43z"/>
<path style="fill:#99aaff; stroke:none;" d="M280 43L280 154L392 154C387.026 146.938 380.099 141.099 374 135L342 103C327.139 88.139 312.37 73.2279 297 58.9105C291.331 53.6293 286.349 47.4727 280 43z"/>
<path style="fill:#ffffff; stroke:none;" d="M63 45L64 46L63 45M296 58L297 59L296 58M297 59L298 60L297 59M74 60L75 61L74 60M298 60L299 61L298 60M299 61L300 62L299 61z"/>
<path style="fill:#8080ff; stroke:none;" d="M77 64L78 65L77 64z"/>
<path style="fill:#e6eaff; stroke:none;" d="M38 391C88.8313 384.576 139.994 379.024 191 374.17C220.119 371.399 250.183 370.35 279 365L279 156C271.552 159.864 265.884 167.125 260 173C250.84 182.146 241.276 190.937 232 199.985C202.31 228.948 171.34 256.68 142 286C145.476 269.159 150.971 252.566 155.576 236C165.117 201.674 174.838 167.388 184.151 133C187.677 119.983 191.28 106.962 195 94C196.15 89.9934 199.922 82.4182 198.306 78.3179C196.969 74.9251 190.833 76.0002 188 76L156 76L46 76C34.3176 76 15.0932 71.8008 9.36728 85.0008C5.60591 93.6719 10.714 101.113 15.5756 108C22.834 118.283 29.8392 128.746 37.1412 139C62.5699 174.708 87.6739 210.764 112.344 247C118.529 256.085 124.985 264.991 131.28 274C133.456 277.114 138.264 282.072 138.462 286C138.626 289.25 135.049 291.941 132.999 293.999C127.171 299.852 120.847 305.154 115 311C96.3273 329.672 76.6902 347.34 58 366C50.6859 373.302 39.144 379.903 38 391z"/>
<path style="fill:#ccd5ff; stroke:none;" d="M199 77C196.837 93.0485 190.558 109.415 186.14 125C175.859 161.274 165.705 197.608 155.849 234C151.24 251.018 144.354 268.519 142 286C153.895 277.622 163.395 265.968 174 256.09C197.972 233.759 221.774 211.115 245 188.001C252.853 180.186 261.149 172.842 269 165C271.511 162.492 277.396 158.579 277.94 154.83C278.335 152.104 275.678 149.755 273.98 148.015C269.538 143.462 264.51 139.502 260 135L221 96C214.286 89.2859 207.834 80.8858 199 77z"/>
<path style="fill:#b3bfff; stroke:none;" d="M280 155C282.887 165.575 287.709 175.747 291.576 186C299.136 206.041 306.96 225.981 314.576 246C324.09 271.01 333.524 296.048 343.189 321C347.433 331.958 351.022 343.356 356 354C361.501 349.653 363.45 342.292 366.15 336C371.578 323.355 376.829 310.636 382.281 298C402.901 250.208 423.24 202.163 443 154L280 155z"/>
<path style="fill:#dbe2ff; stroke:none;" d="M278 155C279.91 163.024 279 171.791 279 180L279 224L279 365C280.981 360.28 280 354.08 280 349L280 317L280 204L280 168C280 163.932 281.259 157.848 278 155z"/>
<path style="fill:#ccd5ff; stroke:none;" d="M442 155C433.899 175.88 424.592 196.434 415.719 217C411.357 227.111 405.907 237.37 403 248C430.95 242.734 458.996 237.889 487 232.916C497.491 231.053 506.542 223.89 503.442 212C501.929 206.195 497.237 202.651 493 198.831C485.016 191.634 477.082 184.374 469 177.285C460.655 169.964 452.214 159.552 442 155M280 157L280 365C294.994 364.356 310.073 361.764 325 360.166C334.997 359.096 346.906 359.564 356 355C352.606 340.677 345.653 326.746 340.424 313C329.133 283.318 317.631 253.713 306.424 224C301.011 209.65 295.408 195.371 290.05 181C287.207 173.373 284.871 163.511 280 157z"/>
<path style="fill:#ffffff; stroke:none;" d="M401 252L402 253L401 252z"/>
<path style="fill:#8080ff; stroke:none;" d="M398 259L399 260L398 259M395 266L396 267L395 266z"/>
<path style="fill:#ffffff; stroke:none;" d="M378 306L379 307L378 306M375 313L376 314L375 313z"/>
<path style="fill:#8080ff; stroke:none;" d="M372 320L373 321L372 320z"/>
<path style="fill:#ccd5ff; stroke:none;" d="M38 391C38.0379 404.219 49.6696 414.227 57.6111 424C76.2412 446.926 94.4382 470.224 113.25 493C121.089 502.492 131.374 518.953 145.985 509.991C151.104 506.85 152.866 501.381 154.667 496L162.333 473C173.354 439.939 185.218 407.137 196 374C171.054 374.069 145.828 379.458 121 381.83C93.5441 384.454 65.1228 385.962 38 391z"/>
</svg>
